<?xml version="1.0" encoding="UTF-8"?>
<svg xmlns="http://www.w3.org/2000/svg" xmlns:xlink="http://www.w3.org/1999/xlink" width="185.79pt" height="124.85pt" viewBox="0 0 185.79 124.85" version="1.1">
<defs>
<clipPath id="clip1">
  <path d="M 0 0 L 185.789063 0 L 185.789063 124.851563 L 0 124.851563 Z M 0 0 "/>
</clipPath>
</defs>
<g id="surface1">
<g clip-path="url(#clip1)" clip-rule="nonzero">
<path style=" stroke:none;fill-rule:nonzero;fill:rgb(92.89856%,10.998535%,14.099121%);fill-opacity:1;" d="M 0 124.789063 L 0 93.550781 C 17.203125 96.515625 37.046875 94.351563 38.222656 85.976563 C 38.722656 82.414063 35.996094 79.855469 22.722656 69.632813 C 12.398438 61.644531 0.648438 50.910156 2.75 35.949219 C 5.492188 16.445313 32.261719 -0.257813 78.390625 0.0117188 C 96.816406 -0.0429688 101.558594 0.0820313 115.976563 2.003906 C 142.597656 5.421875 155.605469 18.667969 155.605469 35.214844 C 155.605469 49.964844 146.433594 61.296875 132.402344 71.1875 C 137.800781 77.304688 181.117188 118.234375 185.792969 123.992188 L 131.394531 123.992188 C 127.257813 117.15625 93.851563 69.496094 93.851563 69.496094 L 99.425781 66.289063 C 106.457031 60.964844 113.875 53.035156 113.875 43.847656 C 113.875 37.296875 111.6875 30.253906 92.957031 29.101563 C 87.523438 28.765625 81.789063 28.78125 73.027344 28.914063 C 55.605469 29.390625 47.246094 30.820313 46.355469 37.171875 C 45.753906 41.445313 51.078125 44.917969 61.855469 52.246094 C 70.640625 58.207031 84.835938 68.375 82.578125 84.402344 C 79.828125 103.996094 55.023438 126.164063 0 124.789063 "/>
</g>
</g>
</svg>
